<?xml version="1.0" encoding="UTF-8"?><svg id="Layer_1" xmlns="http://www.w3.org/2000/svg" viewBox="0 0 624.25 205.75"><defs><style>.cls-1{fill:#333;font-family:Poppins-SemiBold, Poppins;font-size:136.26px;}.cls-2{fill:#0b75b0;}.cls-3{fill:#e96324;}.cls-4{fill:#231f20;font-family:International-Regular, International;font-size:56.1px;letter-spacing:.6em;}</style></defs><path class="cls-2" d="M460.79,27.18c-27.17,0-49.2,22.03-49.2,49.2s22.03,49.2,49.2,49.2,49.2-22.03,49.2-49.2-22.03-49.2-49.2-49.2Zm25.55,56.77h-17.98v17.98h-15.14v-17.98h-17.98v-15.14h17.98v-17.98h15.14v17.98h17.98v15.14Z"/><g><text class="cls-4" transform="translate(30.57 194.06)"><tspan x="0" y="0">PHARMACY</tspan></text><g><text class="cls-1" transform="translate(124.9 124.95)"><tspan x="0" y="0" xml:space="preserve">ILL B   X</tspan></text><g><path class="cls-2" d="M116.45,18.84c-3.41-5.86-8.52-10.47-15.34-13.82-6.82-3.35-15.07-5.02-24.76-5.02H30.23V20.5h25.12v-.04h19.92c13.64,0,20.46,6.1,20.46,18.3,0,5.74-1.68,10.2-5.02,13.37-3.35,3.17-8.5,4.76-15.43,4.76h-17.8v.06H30.23V125.24h25.12v-48.09h20.99c10.29,0,18.81-1.79,25.57-5.38,6.76-3.59,11.72-8.31,14.89-14.18,3.17-5.86,4.76-12.14,4.76-18.84,0-7.42-1.7-14.05-5.11-19.92Z"/><path class="cls-3" d="M52.39,24.31H14.43c-7.97,0-14.43,6.46-14.43,14.43H0c0,7.97,6.46,14.43,14.43,14.43H52.39c7.97,0,14.43-6.46,14.43-14.43h0c0-7.97-6.46-14.43-14.43-14.43Zm.23,27.21H30.22V25.95h22.4c7.06,0,12.79,5.72,12.79,12.79s-5.72,12.79-12.79,12.79Z"/></g></g></g></svg>